# xmcd
#
# Track frame offsets:
#	150
#	119710
#	143795
#	181059
#	255717
#	273685
#
# Disc length: 4428 seconds
#
# Revision: 0
# Processed by: cddbd v1.5.2PL0 Copyright (c) Steve Scherf et al.
# Submitted via: audiograbber 1.83.01
#
DISCID=5a114a06
DTITLE=Driftin - 222
DYEAR=2006
DGENRE=Blues
TTITLE0=June Jam
TTITLE1=The Groover
TTITLE2=Viso´s Ballad
TTITLE3=Chris´s Funk
TTITLE4=Moon
TTITLE5=Machienes
EXTD=
EXTT0=
EXTT1=
EXTT2=
EXTT3=
EXTT4=
EXTT5=
PLAYORDER=
